<svg width="1002" height="234" viewBox="0 0 1002 234" fill="none" xmlns="http://www.w3.org/2000/svg">
<path d="M414.28 66.55C405.94 61.79 397.36 59.4 388.53 59.4C379.7 59.4 372.2 60.91 366.04 63.92C362.43 65.69 359.18 67.92 356.29 70.62C355.52 71.34 354.27 70.8 354.27 69.75V65.45C354.27 63.62 352.79 62.13 350.95 62.13H324.58C322.75 62.13 321.26 63.61 321.26 65.45V210.37C321.26 212.2 322.74 213.69 324.58 213.69H353.68C355.51 213.69 357 212.21 357 210.37V164.31C357 164.01 357.36 163.84 357.59 164.04C360.65 166.72 363.99 168.87 367.62 170.49C373.43 173.08 380.41 174.38 388.53 174.38C397.36 174.38 405.94 172.03 414.28 167.34C422.62 162.65 429.34 155.96 434.46 147.27C439.57 138.58 442.13 128.49 442.13 117C442.13 105.51 439.57 95.42 434.46 86.73C429.34 78.04 422.62 71.32 414.28 66.55ZM403.78 130.24C401.61 134.17 398.49 137.25 394.43 139.49C390.36 141.73 385.95 142.85 381.19 142.85C376.15 142.85 371.63 141.73 367.63 139.49C363.64 137.25 360.55 134.17 358.38 130.24C356.21 126.32 355.12 121.9 355.12 117C355.12 112.1 356.2 107.68 358.38 103.76C360.55 99.84 363.63 96.72 367.63 94.41C371.62 92.1 376.14 90.94 381.19 90.94C385.95 90.94 390.37 92.1 394.43 94.41C398.49 96.72 401.61 99.84 403.78 103.76C405.95 107.68 407.04 112.1 407.04 117C407.04 121.9 405.95 126.32 403.78 130.24Z" fill="black"/>
<path d="M488.38 81.11V62.96C488.38 62.51 488.01 62.14 487.56 62.14H453.46C453.01 62.14 452.64 62.51 452.64 62.96V170.84C452.64 171.29 453.01 171.66 453.46 171.66H487.56C488.01 171.66 488.38 171.29 488.38 170.84V92.99C488.38 92.54 488.01 92.17 487.56 92.17H473.09C472.25 92.17 471.96 91.06 472.68 90.65L487.97 81.82C488.22 81.67 488.38 81.4 488.38 81.11Z" fill="black"/>
<path d="M593.68 65.4C586.95 61.41 579.31 59.41 570.77 59.41C565.86 59.41 561.28 60.04 557 61.3C552.72 62.56 548.73 64.53 545.02 67.19C543.37 68.37 541.75 69.69 540.17 71.12C539.57 71.66 538.61 71.24 538.61 70.43V63.08C538.61 62.56 538.19 62.15 537.68 62.15H506.55C506.03 62.15 505.62 62.57 505.62 63.08V81.4C505.62 81.73 505.8 82.04 506.09 82.21L520.35 90.44C521.18 90.92 520.84 92.18 519.88 92.18H506.56C506.04 92.18 505.63 92.6 505.63 93.11V170.72C505.63 171.24 506.05 171.65 506.56 171.65H540.43C540.95 171.65 541.36 171.23 541.36 170.72V113.43C541.36 108.95 542.16 105.06 543.78 101.76C545.39 98.47 547.7 95.87 550.72 93.98C553.73 92.09 557.13 91.14 560.91 91.14C564.69 91.14 568.02 92.09 570.89 93.98C573.76 95.87 575.93 98.47 577.41 101.76C578.88 105.05 579.62 108.94 579.62 113.43V170.72C579.62 171.24 580.04 171.65 580.55 171.65H614.42C614.94 171.65 615.35 171.23 615.35 170.72V105.86C615.35 97.03 613.42 89.08 609.57 82C605.71 74.93 600.43 69.39 593.7 65.39L593.68 65.4Z" fill="black"/>
<path d="M710.34 33.57L726.41 42.85C727.15 43.28 726.85 44.41 725.99 44.41H710.76C710.3 44.41 709.92 44.79 709.92 45.25V68.42C709.92 69.13 709.09 69.52 708.54 69.06C707.36 68.06 706.14 67.16 704.88 66.35C701.38 64.11 697.42 62.39 693 61.2C688.59 60.01 683.65 59.41 678.18 59.41C669.21 59.41 660.63 61.79 652.43 66.56C644.23 71.33 637.54 78.05 632.36 86.74C627.17 95.43 624.58 105.52 624.58 117.01C624.58 128.5 627.17 138.59 632.36 147.28C637.54 155.97 644.24 162.66 652.43 167.35C660.63 172.04 669.21 174.39 678.18 174.39C687.15 174.39 694.54 172.88 700.78 169.87C704.63 168.01 708.05 165.62 711.02 162.71C711.55 162.19 712.45 162.56 712.45 163.3V170.82C712.45 171.28 712.83 171.66 713.29 171.66H744.61C745.07 171.66 745.45 171.28 745.45 170.82V21.16C745.45 20.7 745.07 20.32 744.61 20.32H710.76C710.3 20.32 709.92 20.7 709.92 21.16V32.86C709.92 33.16 710.08 33.44 710.34 33.59V33.57ZM708.34 130.14C706.16 134.13 703.08 137.25 699.09 139.49C695.1 141.73 690.65 142.85 685.74 142.85C680.83 142.85 676.39 141.73 672.39 139.49C668.4 137.25 665.31 134.13 663.14 130.14C660.97 126.15 659.88 121.77 659.88 117C659.88 111.96 660.96 107.51 663.14 103.65C665.31 99.8 668.4 96.71 672.39 94.4C676.38 92.09 680.83 90.93 685.74 90.93C690.65 90.93 695.09 92.09 699.09 94.4C703.08 96.71 706.16 99.8 708.34 103.65C710.51 107.51 711.6 111.95 711.6 117C711.6 121.76 710.51 126.14 708.34 130.14Z" fill="black"/>
<path d="M844.86 70.7C844.86 71.4 844.02 71.75 843.52 71.26C842.13 69.89 840.65 68.64 839.08 67.5C835.51 64.91 831.34 62.91 826.57 61.51C821.81 60.11 816.48 59.41 810.6 59.41C801.63 59.41 793.05 61.79 784.85 66.56C776.65 71.33 769.96 78.05 764.78 86.74C759.59 95.43 757 105.52 757 117.01C757 128.5 759.59 138.59 764.78 147.28C769.96 155.97 776.66 162.66 784.85 167.35C793.05 172.04 801.63 174.39 810.6 174.39C819.57 174.39 826.96 172.88 833.2 169.87C837.09 167.99 840.53 165.57 843.53 162.62C844.03 162.13 844.87 162.48 844.87 163.18V170.87C844.87 171.3 845.22 171.66 845.66 171.66H877.09C877.52 171.66 877.88 171.31 877.88 170.87V62.93C877.88 62.5 877.53 62.14 877.09 62.14H845.66C845.23 62.14 844.87 62.49 844.87 62.93V70.7H844.86ZM840.76 130.24C838.59 134.17 835.5 137.25 831.51 139.49C827.52 141.73 823.07 142.85 818.16 142.85C813.25 142.85 808.81 141.73 804.81 139.49C800.82 137.25 797.73 134.17 795.56 130.24C793.39 126.32 792.3 121.9 792.3 117C792.3 112.1 793.38 107.68 795.56 103.76C797.73 99.84 800.82 96.72 804.81 94.41C808.8 92.1 813.25 90.94 818.16 90.94C823.07 90.94 827.51 92.1 831.51 94.41C835.5 96.72 838.59 99.84 840.76 103.76C842.93 107.68 844.02 112.1 844.02 117C844.02 121.9 842.93 126.32 840.76 130.24Z" fill="black"/>
<path d="M966.37 62.14C965.9 62.14 965.51 62.52 965.51 63V121.84C965.51 128.29 963.86 133.37 960.57 137.08C957.28 140.79 952.97 142.65 947.64 142.65C944 142.65 940.88 141.81 938.29 140.13C935.69 138.45 933.66 136.03 932.19 132.88C930.72 129.73 929.98 126.05 929.98 121.85V63.01C929.98 62.54 929.6 62.15 929.12 62.15H895.1C894.63 62.15 894.24 62.53 894.24 63.01V120.8C894.24 131.45 896.37 140.84 900.65 148.97C904.92 157.1 911.06 163.37 919.04 167.78C927.03 172.19 936.56 174.4 947.63 174.4C958.7 174.4 968.05 172.19 976.11 167.78C984.17 163.37 990.33 157.1 994.61 148.97C998.88 140.84 1001.02 131.45 1001.02 120.8V63.01C1001.02 62.54 1000.64 62.15 1000.16 62.15H966.35L966.37 62.14Z" fill="black"/>
<path d="M219.86 25.59C195.85 9.29996 164.37 0.329956 131.21 0.329956C98.05 0.329956 66.57 9.29996 42.56 25.59C16.12 43.52 0.960022 69.3 0.960022 96.31C0.960022 123.32 16.12 149.1 42.56 167.03C54.12 174.87 67.42 181 81.8 185.26C83.95 185.9 86.12 184.29 86.12 182.05V138.88C86.12 137.53 85.3 136.32 84.06 135.79C61.87 126.29 48.36 110.78 48.36 96.31C48.36 73.33 82.39 47.73 131.21 47.73C180.03 47.73 214.06 73.33 214.06 96.31C214.06 114.67 192.32 134.7 158.67 142.01C156.58 142.46 154.59 140.87 154.59 138.73V78.45C154.59 76.6 153.09 75.1 151.24 75.1H111.66C109.81 75.1 108.31 76.6 108.31 78.45V230.32C108.31 232.17 109.81 233.67 111.66 233.67H151.24C153.09 233.67 154.59 232.17 154.59 230.32V193.67C154.59 192 155.82 190.6 157.47 190.36C180.75 186.92 202.3 178.94 219.85 167.03C246.29 149.1 261.45 123.32 261.45 96.31C261.45 69.3 246.29 43.52 219.85 25.59H219.86Z" fill="url(#paint0_linear_120_19)"/>
<defs>
<linearGradient id="paint0_linear_120_19" x1="29.75" y1="19.2" x2="159.32" y2="124.59" gradientUnits="userSpaceOnUse">
<stop stop-color="#D71DFE"/>
<stop offset="0.19" stop-color="#B616DE"/>
<stop offset="0.41" stop-color="#9610C0"/>
<stop offset="0.62" stop-color="#7F0BA9"/>
<stop offset="0.82" stop-color="#71089C"/>
<stop offset="1" stop-color="#6D0898"/>
</linearGradient>
</defs>
</svg>
